<svg width="30" height="30" viewBox="0 0 30 30" fill="none" xmlns="http://www.w3.org/2000/svg">
<path d="M11.2282 10.3339C11.228 10.6875 11.0842 11.0266 10.8282 11.2765C10.5723 11.5264 10.2252 11.6667 9.86343 11.6665C9.50165 11.6663 9.15475 11.5257 8.89906 11.2755C8.64336 11.0254 8.49982 10.6862 8.5 10.3326C8.50018 9.97899 8.64407 9.63994 8.90002 9.39003C9.15597 9.14012 9.50301 8.99982 9.8648 9C10.2266 9.00018 10.5735 9.14081 10.8292 9.39097C11.0849 9.64113 11.2284 9.98032 11.2282 10.3339ZM11.2692 12.6538H8.54092V21H11.2692V12.6538ZM15.5797 12.6538H12.8652V21H15.5525V16.6202C15.5525 14.1804 18.8059 13.9537 18.8059 16.6202V21H21.5V15.7136C21.5 11.6005 16.6847 11.7538 15.5525 13.7737L15.5797 12.6538Z" fill="black"/>
</svg>
